<svg width="95" height="95" viewBox="0 0 95 95" fill="none" xmlns="http://www.w3.org/2000/svg">
<g filter="url(#filter0_d_497_3034)">
<rect x="26.8359" y="7.28195" width="59" height="59" rx="6" transform="rotate(15.2428 26.8359 7.28195)" fill="#FC7244" shape-rendering="crispEdges"/>
<path d="M32.1735 55.9052C34.4237 56.7194 38.0231 57.9103 43.2298 59.3291C48.4365 60.7479 52.1425 61.5477 54.4946 61.9876C56.859 62.4301 59.1302 61.1316 59.9483 58.8697C60.7625 56.6194 61.9534 53.0201 63.3723 47.8134C64.0835 45.2033 64.6389 42.971 65.0717 41.0968L33.657 32.5364C32.9663 34.7403 32.3185 36.9575 31.7141 39.1866C30.2953 44.3933 29.4955 48.0993 29.0556 50.4515C28.6131 52.8158 29.9116 55.087 32.1735 55.9052Z" fill="white"/>
<path fill-rule="evenodd" clip-rule="evenodd" d="M34.3329 30.4531C34.6316 29.5605 34.9002 28.7863 35.1389 28.1304C35.9571 25.8684 38.2283 24.5699 40.5926 25.0124C42.9448 25.4524 46.6508 26.2521 51.8575 27.6709C57.0642 29.0897 60.6635 30.2807 62.9137 31.0949C65.1757 31.913 66.4742 34.1842 66.0317 36.5485C65.9043 37.2343 65.743 38.0378 65.5479 38.9591L34.3329 30.4531ZM39.1951 28.3771C39.2714 28.0972 39.4557 27.8591 39.7075 27.7151C39.9593 27.5712 40.2581 27.5331 40.5379 27.6094L41.945 27.9928C42.2248 28.0691 42.463 28.2534 42.6069 28.5052C42.7509 28.7571 42.7889 29.0558 42.7127 29.3356C42.6364 29.6155 42.4521 29.8536 42.2003 29.9976C41.9484 30.1416 41.6497 30.1796 41.3698 30.1034L39.9628 29.7199C39.6829 29.6437 39.4448 29.4594 39.3008 29.2075C39.1569 28.9557 39.1188 28.657 39.1951 28.3771ZM46.166 29.143C45.8862 29.0668 45.5875 29.1048 45.3356 29.2488C45.0838 29.3928 44.8995 29.6309 44.8232 29.9108C44.747 30.1906 44.785 30.4893 44.929 30.7412C45.0729 30.993 45.3111 31.1773 45.5909 31.2536L46.998 31.637C47.2778 31.7133 47.5765 31.6752 47.8284 31.5313C48.0802 31.3873 48.2645 31.1492 48.3408 30.8693C48.4171 30.5894 48.379 30.2907 48.235 30.0389C48.0911 29.787 47.853 29.6027 47.5731 29.5265L46.166 29.143Z" fill="white"/>
</g>
<defs>
<filter id="filter0_d_497_3034" x="-0.675781" y="-0.718048" width="96.4355" height="96.4361" filterUnits="userSpaceOnUse" color-interpolation-filters="sRGB">
<feFlood flood-opacity="0" result="BackgroundImageFix"/>
<feColorMatrix in="SourceAlpha" type="matrix" values="0 0 0 0 0 0 0 0 0 0 0 0 0 0 0 0 0 0 127 0" result="hardAlpha"/>
<feOffset dy="4"/>
<feGaussianBlur stdDeviation="6"/>
<feComposite in2="hardAlpha" operator="out"/>
<feColorMatrix type="matrix" values="0 0 0 0 0.0521865 0 0 0 0 0.199801 0 0 0 0 0.528696 0 0 0 0.2 0"/>
<feBlend mode="normal" in2="BackgroundImageFix" result="effect1_dropShadow_497_3034"/>
<feBlend mode="normal" in="SourceGraphic" in2="effect1_dropShadow_497_3034" result="shape"/>
</filter>
</defs>
</svg>
