<svg width="30" height="30" viewBox="0 0 30 30" fill="none" xmlns="http://www.w3.org/2000/svg">
<rect width="30" height="30" fill="#F0F5FF"/>
<path d="M8.60319 13.7805C9.00819 12.9155 9.48819 12.0305 10.0282 11.1505L3.31319 13.8255C3.11819 13.9005 2.99319 14.0905 2.99819 14.3005C3.00819 14.5105 3.14319 14.6955 3.34319 14.7605L7.66819 16.2055C7.87819 15.4805 8.18819 14.6755 8.60319 13.7805ZM15.2382 26.6555C15.3032 26.8555 15.4882 26.9905 15.6982 27.0005H15.7132C15.9132 27.0005 16.0982 26.8755 16.1732 26.6855L18.8632 19.9305C17.1532 20.9855 15.3932 21.8405 13.7932 22.3205L15.2382 26.6555Z" fill="#447DFC"/>
<path d="M21.5981 7.89556C20.3981 6.69506 19.3896 5.31732 18.6081 3.81056C18.5531 3.83556 18.4931 3.85556 18.4331 3.88056C17.2831 4.38556 16.2231 5.12556 15.2781 6.06556C12.9731 8.37056 10.8131 11.4156 9.50806 14.2056C8.01806 17.3906 7.84306 19.7956 9.02306 20.9756C9.56306 21.5156 10.3231 21.7506 11.2331 21.7506C14.7681 21.7506 20.5031 18.1506 23.9331 14.7206C24.8781 13.7756 25.6131 12.7156 26.1181 11.5656C26.1781 11.4356 26.2231 11.3056 26.2731 11.1756C24.5531 10.3706 22.9731 9.27556 21.5981 7.89556ZM19.8381 13.9156C19.3381 14.4156 18.6731 14.6906 17.9631 14.6906C17.2531 14.6906 16.5881 14.4156 16.0831 13.9156C15.5859 13.4172 15.3067 12.742 15.3067 12.0381C15.3067 11.3341 15.5859 10.6589 16.0831 10.1606C16.5881 9.65556 17.2531 9.38056 17.9631 9.38056C18.6731 9.38056 19.3381 9.65556 19.8381 10.1606C20.3431 10.6606 20.6181 11.3256 20.6181 12.0356C20.6181 12.7456 20.3431 13.4106 19.8381 13.9156ZM26.6031 10.2256C25.0084 9.46442 23.5544 8.43818 22.3031 7.19056C21.2079 6.09235 20.2827 4.83686 19.5581 3.46556C23.0081 2.39556 26.0181 3.49556 26.1581 3.54556C26.2931 3.59556 26.3981 3.70556 26.4481 3.83556C26.5031 3.97056 27.5581 6.86056 26.6031 10.2256Z" fill="#447DFC"/>
<path d="M16.792 10.866C16.4821 11.1767 16.3081 11.5977 16.3081 12.0365C16.3081 12.4754 16.4821 12.8963 16.792 13.207C17.417 13.8325 18.5075 13.832 19.1325 13.207C19.2867 13.0537 19.409 12.8713 19.4923 12.6703C19.5755 12.4694 19.6181 12.254 19.6175 12.0365C19.6175 11.5945 19.445 11.179 19.1325 10.8665C18.5075 10.2415 17.4175 10.2405 16.792 10.866ZM7.28804 19.416C7.22804 19.466 7.16804 19.526 7.11304 19.581C5.16304 21.536 4.93304 24.416 4.92304 24.536C4.91304 24.681 4.96804 24.821 5.06804 24.926C5.16304 25.021 5.29304 25.071 5.42304 25.071H5.45804C5.58304 25.061 8.46304 24.836 10.413 22.881C10.468 22.826 10.523 22.771 10.573 22.711C9.64804 22.606 8.89304 22.256 8.31804 21.681C7.84304 21.206 7.41304 20.486 7.28804 19.416Z" fill="#447DFC"/>
</svg>
