<svg width="30" height="30" viewBox="0 0 30 30" fill="none" xmlns="http://www.w3.org/2000/svg">
<rect width="30" height="30" fill="#F0F5FF"/>
<path d="M24.1404 14.5671L21.7521 14.4379C21.7367 14.437 21.7215 14.4342 21.7068 14.4295C20.6159 14.0774 20.122 13.5795 19.3747 12.8259C18.7912 12.2375 18.0651 11.5053 16.7667 10.5112C16.6618 10.4309 16.5395 10.3558 16.4002 10.2849L11.9012 16.0741C13.6224 16.6234 14.112 18.4033 14.1069 18.5966C14.105 18.6713 14.0559 18.7331 13.988 18.7577C13.9825 18.76 13.9767 18.7615 13.9709 18.7632C13.9642 18.7649 13.9584 18.7685 13.9515 18.7694C13.9437 18.7705 13.936 18.771 13.9282 18.7709C13.9266 18.7709 13.9251 18.7704 13.9234 18.7703C13.9205 18.7703 13.9178 18.771 13.9149 18.7708L13.6624 18.7619L9.08075 21.7673L9.16713 21.7733L14.0522 21.9809C14.2609 21.9898 14.4614 22.0405 14.6483 22.1319C15.4415 22.5189 17.781 23.0526 20.9569 22.3011C21.6787 22.1303 24.1604 22.0366 24.2657 22.0326C24.8 22.018 25.2729 21.684 25.444 21.2016C25.4505 21.183 25.4563 21.1654 25.461 21.149C26.2126 18.5043 25.8728 16.3979 25.3043 15.3085C25.0795 14.8777 24.6335 14.5938 24.1404 14.5671ZM8.88173 22.1189C8.86545 22.1182 8.85011 22.1147 8.8353 22.11C8.83313 22.1101 8.83122 22.1111 8.82903 22.1111C8.82182 22.1111 8.81454 22.1107 8.80716 22.1099C8.79188 22.108 8.7776 22.1052 8.76246 22.1032L8.75184 22.1024C8.73967 22.1016 8.72762 22.0995 8.71587 22.0962C8.64224 22.0856 8.57018 22.0736 8.5 22.0598C8.67469 22.6078 9.19402 22.9959 9.79901 22.9959C10.3347 22.9959 10.8147 22.682 11.0334 22.2104L8.88173 22.1189Z" fill="#447DFC"/>
<path d="M11.6593 22.2369C11.879 22.6954 12.3398 22.9961 12.8559 22.9961C12.864 22.9961 12.8721 22.9961 12.8803 22.9959C13.3822 22.9866 13.8213 22.7351 14.0545 22.3396C14.0485 22.3392 14.0425 22.3382 14.0364 22.3379L11.6593 22.2369ZM10.523 11.3446C9.08612 12.4762 5.35856 15.9467 4.91099 16.8081C4.9079 16.8141 4.90446 16.8199 4.9007 16.8254C4.55498 17.3397 4.41713 17.789 4.49105 18.161C4.54794 18.4475 4.73627 18.6989 5.05082 18.9079C5.38159 19.1278 5.70959 19.1621 6.02486 19.0786L13.3261 9.68359C12.4707 9.8871 11.4491 10.6152 10.523 11.3446ZM11.6651 16.3772L10.1851 18.2816L13.6922 18.4054C13.535 17.9206 13.0188 16.7394 11.6651 16.3772Z" fill="#447DFC"/>
<path d="M24.1595 14.2103L21.7946 14.0823C20.8017 13.7575 20.3588 13.3108 19.6282 12.5742C19.0683 12.0096 18.3015 11.2364 16.9838 10.2274C16.8778 10.1463 16.7578 10.0701 16.6229 9.99819L18.1448 8.03984C18.3763 7.74182 18.4776 7.37143 18.4302 6.99663C18.3833 6.62625 18.1963 6.29762 17.9036 6.07125C17.294 5.5999 16.4103 5.71553 15.9336 6.3288L13.6437 9.27548C12.6238 9.3446 11.3956 10.2029 10.3023 11.0639C8.81278 12.2369 5.09417 15.7061 4.59914 16.6341C4.20235 17.2271 4.04822 17.7641 4.14088 18.2307C4.21701 18.6139 4.4567 18.9419 4.85338 19.2055C5.14594 19.4001 5.43285 19.4826 5.71028 19.4839L5.55209 19.6875C5.49776 19.7575 5.45071 19.8318 5.41226 19.9086C5.41028 19.9126 5.40842 19.9167 5.40674 19.9208L3.77992 23.8867C3.7156 24.0218 3.76573 24.1268 3.82924 24.1762C3.86089 24.2007 3.90503 24.2187 3.95563 24.2187C4.00652 24.2187 4.06393 24.2005 4.12151 24.1527L7.4771 21.6716C7.6593 21.788 7.87009 21.8862 8.10902 21.9617C8.25599 22.7623 8.96207 23.3533 9.79887 23.3533C10.4616 23.3533 11.0559 22.9716 11.3396 22.3953C11.6186 22.9741 12.2023 23.3535 12.8562 23.3535C12.8665 23.3535 12.8769 23.3534 12.8872 23.3533C13.5564 23.3409 14.1382 22.9802 14.4166 22.4211C14.4417 22.4312 14.4668 22.441 14.4913 22.4529C15.0555 22.7284 16.2129 23.0419 17.8107 23.0419C18.7461 23.0419 19.8324 22.9344 21.0391 22.6489C21.727 22.4861 24.2534 22.3907 24.2771 22.3897C24.9563 22.3711 25.5605 21.9417 25.7807 21.3209C25.7894 21.2965 25.7973 21.2718 25.8045 21.2468C26.5848 18.5011 26.2213 16.2935 25.6209 15.1431C25.338 14.6011 24.778 14.2436 24.1595 14.2103ZM17.6851 6.35392C17.9021 6.52178 18.0408 6.76595 18.0757 7.04153C18.1111 7.32141 18.0354 7.59803 17.8626 7.82045L17.7053 8.02284L16.0591 6.74989L16.2158 6.54818C16.5718 6.08986 17.2308 6.00285 17.6851 6.35392ZM15.8398 7.03205L17.486 8.30498L9.74484 18.2661L9.26634 18.2492C9.16171 18.2454 9.05928 18.2505 8.96028 18.2553C8.88938 18.2588 8.81854 18.2622 8.74753 18.2622C8.72932 18.2621 8.71158 18.2619 8.69372 18.262C7.2764 18.262 6.74276 19.3344 6.71699 20.3437C6.71582 20.3895 6.71823 20.4342 6.72103 20.4788L5.88951 19.8358L15.8398 7.03205ZM4.8943 22.1117L5.57204 22.6357L4.29071 23.5831L4.8943 22.1117ZM5.87064 22.415L5.03497 21.7687L5.70204 20.1425L6.88635 21.0584C6.96179 21.1983 7.06151 21.3272 7.18409 21.4438L5.87064 22.415ZM10.1854 18.2816L11.6654 16.3772C13.0191 16.7394 13.5353 17.9207 13.6926 18.4054L10.1854 18.2816ZM5.0512 18.908C4.73665 18.6989 4.54832 18.4476 4.49143 18.161C4.41751 17.789 4.55536 17.3398 4.90108 16.8255C4.90484 16.8199 4.90828 16.8141 4.91137 16.8082C5.35894 15.9468 9.08649 12.4763 10.5234 11.3447C11.4495 10.6153 12.4711 9.88715 13.3264 9.68364L6.02524 19.0787C5.70997 19.1621 5.38196 19.1278 5.0512 18.908ZM9.79888 22.9959C9.19389 22.9959 8.67456 22.6078 8.49987 22.0598C8.57004 22.0736 8.64211 22.0856 8.71574 22.0962C8.72749 22.0995 8.73954 22.1016 8.75171 22.1024L8.76233 22.1032C8.77746 22.1052 8.79175 22.108 8.80703 22.1099C8.81441 22.1107 8.82169 22.1111 8.8289 22.1111C8.83109 22.1111 8.833 22.1101 8.83517 22.11C8.84998 22.1147 8.86532 22.1182 8.88159 22.1189L11.0332 22.2104C10.8145 22.682 10.3346 22.9959 9.79888 22.9959ZM12.8807 22.9959C12.8725 22.9962 12.8644 22.9962 12.8563 22.9962C12.3402 22.9962 11.8794 22.6954 11.6597 22.237L14.0368 22.338C14.0429 22.3382 14.0488 22.3393 14.0549 22.3397C13.8216 22.7352 13.3825 22.9867 12.8807 22.9959ZM25.4608 21.149C25.4561 21.1654 25.4504 21.183 25.4438 21.2016C25.2727 21.684 24.7999 22.018 24.2656 22.0326C24.1603 22.0366 21.6786 22.1303 20.9568 22.3011C17.7808 23.0526 15.4413 22.5189 14.6481 22.1318C14.4612 22.0405 14.2608 21.9898 14.052 21.9808L9.16697 21.7733L9.08059 21.7672L8.79933 21.7476C7.69991 21.6002 7.05555 21.0816 7.07422 20.3527C7.08463 19.9444 7.23248 18.6194 8.69412 18.6194C8.70302 18.6194 8.71215 18.6194 8.72111 18.6195C8.80689 18.6205 8.89211 18.6164 8.97761 18.6123C9.07358 18.6076 9.16402 18.6036 9.25376 18.6063L13.6623 18.7619L13.9147 18.7708C13.9176 18.771 13.9204 18.7703 13.9233 18.7703C13.9249 18.7704 13.9264 18.7709 13.928 18.7709C13.9358 18.7709 13.9436 18.7705 13.9513 18.7694C13.9583 18.7685 13.9641 18.7649 13.9707 18.7632C13.9765 18.7615 13.9823 18.76 13.9879 18.7577C14.0557 18.7331 14.1048 18.6713 14.1068 18.5966C14.1119 18.4033 13.6222 16.6234 11.901 16.0741L16.4 10.2849C16.5394 10.3558 16.6616 10.4309 16.7665 10.5112C18.0649 11.5053 18.791 12.2375 19.3745 12.8259C20.1219 13.5795 20.6157 14.0774 21.7067 14.4295C21.7213 14.4342 21.7365 14.437 21.7519 14.4379L24.1402 14.5671C24.6334 14.5938 25.0793 14.8777 25.3041 15.3085C25.8727 16.3979 26.2124 18.5043 25.4608 21.149Z" fill="#447DFC"/>
<path d="M5.88965 19.8358L6.72117 20.4788C6.71837 20.4342 6.71596 20.3895 6.71713 20.3437C6.74289 19.3344 7.27654 18.262 8.69386 18.262C8.71172 18.2619 8.72946 18.2621 8.74766 18.2622C8.81868 18.2622 8.88952 18.2588 8.96042 18.2553C9.05942 18.2505 9.16184 18.2454 9.26648 18.2492L9.74498 18.2661L17.4861 8.30497L15.84 7.03204L5.88965 19.8358Z" fill="white"/>
<path d="M17.7058 8.02286L17.863 7.82047C18.0359 7.59805 18.1116 7.32143 18.0762 7.04155C18.0413 6.76597 17.9025 6.5218 17.6855 6.35394C17.2313 6.00287 16.5723 6.08988 16.2163 6.5482L16.0596 6.74991L17.7058 8.02286Z" fill="white"/>
<path d="M9.25416 18.6063C9.16441 18.6035 9.07397 18.6075 8.97801 18.6122C8.89251 18.6163 8.80729 18.6205 8.72151 18.6194C8.71255 18.6193 8.70342 18.6193 8.69452 18.6193C7.23288 18.6193 7.08502 19.9444 7.07461 20.3527C7.05594 21.0815 7.70031 21.6001 8.79973 21.7475L9.08099 21.7672L13.6627 18.7618L9.25416 18.6063Z" fill="#447DFC"/>
<path d="M4.8946 22.1321L4.29102 23.6035L5.57234 22.6562L4.8946 22.1321Z" fill="#447DFC"/>
</svg>
