<svg width="84" height="84" viewBox="0 0 84 84" fill="none" xmlns="http://www.w3.org/2000/svg">
<rect x="0.71875" y="0.818298" width="83" height="83" rx="41.5" fill="#447DFC"/>
<path d="M66.2189 30.683C67.1834 30.1446 67.5289 28.9264 66.9905 27.9619C66.4522 26.9973 65.2339 26.6519 64.2694 27.1902L66.2189 30.683ZM20.32 52.3909C20.0187 53.4536 20.6358 54.5594 21.6985 54.8607L39.0156 59.7715C40.0783 60.0729 41.1841 59.4557 41.4854 58.3931C41.7868 57.3304 41.1696 56.2246 40.1069 55.9233L24.7139 51.5581L29.0791 36.1651C29.3805 35.1024 28.7633 33.9967 27.7006 33.6953C26.638 33.394 25.5322 34.0111 25.2308 35.0738L20.32 52.3909ZM65.2441 28.9366L64.2694 27.1902L21.2694 51.1902L22.2441 52.9366L23.2189 54.683L66.2189 30.683L65.2441 28.9366Z" fill="white"/>
</svg>
