<svg width="17" height="17" viewBox="0 0 17 17" fill="none" xmlns="http://www.w3.org/2000/svg">
<path fill-rule="evenodd" clip-rule="evenodd" d="M3.46983 6.04626C3.61045 5.90581 3.80108 5.82692 3.99983 5.82692C4.19858 5.82692 4.3892 5.90581 4.52983 6.04626L8.49983 10.0163L12.4698 6.04626C12.5385 5.97258 12.6213 5.91348 12.7133 5.87248C12.8053 5.83149 12.9046 5.80945 13.0053 5.80767C13.106 5.8059 13.206 5.82442 13.2994 5.86214C13.3928 5.89986 13.4776 5.95601 13.5489 6.02723C13.6201 6.09844 13.6762 6.18328 13.714 6.27667C13.7517 6.37005 13.7702 6.47008 13.7684 6.57079C13.7666 6.67149 13.7446 6.7708 13.7036 6.8628C13.6626 6.9548 13.6035 7.0376 13.5298 7.10626L9.02983 11.6063C8.8892 11.7467 8.69858 11.8256 8.49983 11.8256C8.30108 11.8256 8.11045 11.7467 7.96983 11.6063L3.46983 7.10626C3.32938 6.96564 3.25049 6.77501 3.25049 6.57626C3.25049 6.37751 3.32938 6.18689 3.46983 6.04626Z" fill="#373F51"/>
</svg>
