<svg width="32" height="32" viewBox="0 0 32 32" fill="none" xmlns="http://www.w3.org/2000/svg">
<rect width="32" height="32" fill="#F0F5FF"/>
<path d="M15.5 30.5C22.6797 30.5 28.5 24.6797 28.5 17.5C28.5 10.3203 22.6797 4.5 15.5 4.5C8.3203 4.5 2.5 10.3203 2.5 17.5C2.5 24.6797 8.3203 30.5 15.5 30.5Z" fill="#447DFC" stroke="white"/>
<path d="M15.5 30.5C22.6797 30.5 28.5 24.6797 28.5 17.5C28.5 10.3203 22.6797 4.5 15.5 4.5C8.3203 4.5 2.5 10.3203 2.5 17.5C2.5 24.6797 8.3203 30.5 15.5 30.5Z" stroke="white"/>
<path d="M15.5005 4.25V30.469M28.5625 17.5H2.5625M26.5005 10.5H4.37549M26.4745 24.5H4.59451M14.2095 30.506C10.7525 27.602 8.49951 22.859 8.49951 17.5C8.49951 12.158 10.7385 7.42797 14.1765 4.52197M16.7175 30.574C20.2785 26.788 22.4445 21.674 22.5085 17.5C22.5085 12.107 20.2285 7.33699 16.7325 4.43799" stroke="white"/>
</svg>
