<svg width="36" height="36" viewBox="0 0 36 36" fill="none" xmlns="http://www.w3.org/2000/svg">
<rect width="36" height="36" fill="#F0F5FF"/>
<path d="M26.545 13.5001H34.5V10.5001H10.498V12.0001L26.53 12.7501L26.545 13.5001Z" fill="#447DFC"/>
<path d="M4 14.0001V26.0001H25V14.0001H4Z" fill="#447DFC"/>
<path d="M11.572 7.99902C11.1556 8.00113 10.7568 8.16759 10.4624 8.46216C10.168 8.75673 10.0018 9.15558 10 9.57202V12.6171H11V9.57202C10.9982 9.49637 11.0118 9.42121 11.0399 9.35095C11.068 9.2807 11.1101 9.21688 11.1635 9.16333C11.217 9.10978 11.2807 9.06753 11.3509 9.03931C11.4212 9.01108 11.4963 8.99738 11.572 8.99902H33.428C33.5037 8.99738 33.5788 9.01108 33.6491 9.03931C33.7193 9.06753 33.783 9.10978 33.8365 9.16333C33.8899 9.21688 33.932 9.2807 33.9601 9.35095C33.9882 9.42121 34.0018 9.49637 34 9.57202V22.4291C34.0014 22.5045 33.9875 22.5794 33.9592 22.6493C33.9309 22.7192 33.8888 22.7826 33.8354 22.8358C33.782 22.889 33.7183 22.9309 33.6483 22.959C33.5783 22.987 33.5034 23.0007 33.428 22.999H26.135V23.999H33.428C34.29 23.999 35 23.2911 35 22.4291V9.57202C34.9982 9.15558 34.832 8.75673 34.5376 8.46216C34.2432 8.16759 33.8444 8.00113 33.428 7.99902H11.572Z" fill="#447DFC"/>
<path d="M26.7003 15.6681C27.1105 15.489 27.569 15.4526 28.0023 15.5649C28.4356 15.6771 28.8187 15.9314 29.0903 16.2872C29.362 16.643 29.5063 17.0796 29.5004 17.5273C29.4944 17.9749 29.3384 18.4077 29.0573 18.7562C28.7763 19.1044 28.3867 19.3483 27.9507 19.4489C27.5147 19.5495 27.0575 19.5009 26.6523 19.3111" fill="#447DFC"/>
<path d="M30.5 19.5001C31.6046 19.5001 32.5 18.6047 32.5 17.5001C32.5 16.3956 31.6046 15.5001 30.5 15.5001C29.3954 15.5001 28.5 16.3956 28.5 17.5001C28.5 18.6047 29.3954 19.5001 30.5 19.5001Z" fill="#447DFC"/>
<path d="M3.572 11.999C3.15556 12.0011 2.75678 12.1676 2.4624 12.4622C2.16802 12.7567 2.00184 13.1556 2 13.572V26.4291C2 27.2911 2.71 27.999 3.572 27.999H25.428C26.29 27.999 27 27.2911 27 26.4291V13.572C26.9982 13.1556 26.832 12.7567 26.5376 12.4622C26.2432 12.1676 25.8444 12.0011 25.428 11.999H3.572ZM3.572 12.999H25.428C25.5037 12.9974 25.5788 13.0111 25.6491 13.0393C25.7193 13.0675 25.783 13.1098 25.8365 13.1633C25.8899 13.2169 25.932 13.2807 25.9601 13.351C25.9882 13.4212 26.0018 13.4964 26 13.572V26.4291C26.0014 26.5045 25.9875 26.5794 25.9592 26.6493C25.9309 26.7192 25.8888 26.7826 25.8354 26.8358C25.782 26.889 25.7183 26.9309 25.6483 26.959C25.5783 26.987 25.5034 27.0007 25.428 26.999H3.572C3.49661 27.0007 3.42166 26.987 3.35166 26.959C3.28166 26.9309 3.21804 26.889 3.16462 26.8358C3.11121 26.7826 3.06909 26.7192 3.0408 26.6493C3.01251 26.5794 2.99864 26.5045 3 26.4291V13.572C2.99823 13.4964 3.0118 13.4212 3.03991 13.351C3.06801 13.2807 3.11006 13.2169 3.16352 13.1633C3.21698 13.1098 3.28074 13.0675 3.35094 13.0393C3.42115 13.0111 3.49635 12.9974 3.572 12.999Z" fill="#447DFC"/>
<path d="M14.5 16.0011C12.297 16.0011 10.5 17.796 10.5 19.999C10.5 22.202 12.297 23.999 14.5 23.999C16.703 23.999 18.5 22.202 18.5 19.999C18.4979 18.939 18.0757 17.9231 17.326 17.1737C16.5762 16.4243 15.56 16.0027 14.5 16.0011ZM14.5 17.0011C16.163 17.0011 17.5 18.3381 17.5 20.0011C17.5011 20.3953 17.4242 20.7857 17.2738 21.15C17.1233 21.5144 16.9024 21.8454 16.6236 22.124C16.3447 22.4027 16.0136 22.6234 15.6491 22.7736C15.2847 22.9237 14.8942 23.0003 14.5 22.999C14.1058 23.0003 13.7153 22.9237 13.3509 22.7736C12.9864 22.6234 12.6553 22.4027 12.3764 22.124C12.0976 21.8454 11.8767 21.5144 11.7262 21.15C11.5758 20.7857 11.4989 20.3953 11.5 20.0011C11.5 18.3381 12.837 17.0011 14.5 17.0011Z" fill="#447DFC"/>
<path fill-rule="evenodd" clip-rule="evenodd" d="M19.5 16.999V17.999H21.5V16.999H19.5ZM20.5 19.499V20.499H23.5V19.499H20.5ZM19.5 21.999V22.999H21.5V21.999H19.5ZM7.5 16.999V17.999H9.5V16.999H7.5ZM5.5 19.499V20.499H8.5V19.499H5.5ZM7.5 21.999V22.999H9.5V21.999H7.5Z" fill="#447DFC"/>
</svg>
