<svg width="32" height="32" viewBox="0 0 32 32" fill="none" xmlns="http://www.w3.org/2000/svg">
<rect width="32" height="32" fill="#F0F5FF"/>
<path d="M10 28.5C10 27.899 9.73 27.367 9.31 27H14.5V14H1.5V19.19C1.867 18.77 2.399 18.5 3 18.5C3.53043 18.5 4.03914 18.7107 4.41421 19.0858C4.78929 19.4609 5 19.9696 5 20.5C5 21.0304 4.78929 21.5391 4.41421 21.9142C4.03914 22.2893 3.53043 22.5 3 22.5C2.399 22.5 1.867 22.23 1.5 21.81V27H6.69C6.27 27.367 6 27.899 6 28.5C6 29.0304 6.21071 29.5391 6.58579 29.9142C6.96086 30.2893 7.46957 30.5 8 30.5C8.53043 30.5 9.03914 30.2893 9.41421 29.9142C9.78929 29.5391 10 29.0304 10 28.5Z" fill="#447DFC"/>
<path d="M12.81 1.5C13.23 1.867 13.5 2.399 13.5 3C13.5 3.53043 13.2893 4.03914 12.9142 4.41421C12.5391 4.78929 12.0304 5 11.5 5C10.9696 5 10.4609 4.78929 10.0858 4.41421C9.71071 4.03914 9.5 3.53043 9.5 3C9.5 2.399 9.77 1.867 10.19 1.5H5V6.69C4.81414 6.47408 4.58397 6.3007 4.32514 6.18164C4.06632 6.06258 3.7849 6.00063 3.5 6C2.96957 6 2.46086 6.21071 2.08579 6.58579C1.71071 6.96086 1.5 7.46957 1.5 8C1.5 8.53043 1.71071 9.03914 2.08579 9.41421C2.46086 9.78929 2.96957 10 3.5 10C4.101 10 4.633 9.73 5 9.31V14H14.5V14.5H18V1.5H12.81Z" fill="#447DFC"/>
<path d="M29 9.5C29.601 9.5 30.133 9.77 30.5 10.19V5H25.31C25.73 4.633 26 4.101 26 3.5C26 2.96957 25.7893 2.46086 25.4142 2.08579C25.0391 1.71071 24.5304 1.5 24 1.5C23.4696 1.5 22.9609 1.71071 22.5858 2.08579C22.2107 2.46086 22 2.96957 22 3.5C22 4.101 22.27 4.633 22.69 5H18V14.5H17.5V18H30.5V12.81C30.133 13.229 29.601 13.5 29 13.5C28.4696 13.5 27.9609 13.2893 27.5858 12.9142C27.2107 12.5391 27 12.0304 27 11.5C27 10.9696 27.2107 10.4609 27.5858 10.0858C27.9609 9.71071 28.4696 9.5 29 9.5Z" fill="#447DFC"/>
<path d="M28.5 22C27.899 22 27.367 22.27 27 22.69V18H17.5V17.5H14.5V27H14V30.5H19.19C18.9742 30.314 18.801 30.0838 18.6819 29.825C18.5629 29.5662 18.5008 29.2849 18.5 29C18.5 28.4696 18.7107 27.9609 19.0858 27.5858C19.4609 27.2107 19.9696 27 20.5 27C21.0304 27 21.5391 27.2107 21.9142 27.5858C22.2893 27.9609 22.5 28.4696 22.5 29C22.5 29.601 22.23 30.133 21.81 30.5H27V25.31C27.367 25.73 27.899 26 28.5 26C29.0304 26 29.5391 25.7893 29.9142 25.4142C30.2893 25.0391 30.5 24.5304 30.5 24C30.5 23.4696 30.2893 22.9609 29.9142 22.5858C29.5391 22.2107 29.0304 22 28.5 22Z" fill="#447DFC"/>
</svg>
