<svg width="30" height="30" viewBox="0 0 30 30" fill="none" xmlns="http://www.w3.org/2000/svg">
<path d="M5.78711 10.115H8.25211V9.11499H5.78711C4.54711 9.11499 3.53711 10.13 3.53711 11.37V22.485C3.53711 22.64 3.55211 22.79 3.58211 22.94C3.59211 22.985 3.61211 23.03 3.62711 23.08C3.65211 23.175 3.67711 23.27 3.71211 23.36C3.74711 23.44 3.79711 23.515 3.84211 23.595C3.86711 23.645 3.88711 23.695 3.91711 23.74C4.12291 24.0488 4.40169 24.302 4.72874 24.4773C5.0558 24.6526 5.42104 24.7446 5.79211 24.745H11.4221V26H9.36211C9.08711 26 8.86211 26.225 8.86211 26.5C8.86211 26.775 9.08711 27 9.36211 27H20.6371C20.9171 27 21.1371 26.775 21.1371 26.5C21.1371 26.225 20.9171 26 20.6371 26H18.5821V24.745H24.2071C24.9871 24.745 25.6771 24.345 26.0821 23.74C26.1321 23.67 26.1671 23.585 26.2071 23.51C26.2321 23.46 26.2671 23.415 26.2871 23.36C26.3421 23.235 26.3821 23.1 26.4121 22.965C26.4121 22.955 26.4171 22.95 26.4171 22.94C26.4471 22.795 26.4621 22.64 26.4621 22.485V11.375C26.4621 10.13 25.4521 9.11499 24.2121 9.11499H21.7521V10.115H24.2121C24.9021 10.115 25.4621 10.68 25.4621 11.375V20.605H4.53711V11.37C4.53711 11.038 4.66864 10.7195 4.90292 10.4843C5.1372 10.2491 5.45513 10.1163 5.78711 10.115ZM10.9971 22.175H11.6921C11.9671 22.175 12.1921 22.4 12.1921 22.675C12.1921 22.95 11.9671 23.175 11.6921 23.175H10.9971C10.7221 23.175 10.4971 22.95 10.4971 22.675C10.4971 22.4 10.7221 22.175 10.9971 22.175ZM8.58211 22.175H9.27711C9.55211 22.175 9.77711 22.4 9.77711 22.675C9.77711 22.95 9.55211 23.175 9.27711 23.175H8.58211C8.30711 23.175 8.08211 22.95 8.08211 22.675C8.08211 22.4 8.30711 22.175 8.58211 22.175ZM6.16711 22.175H6.86711C7.14211 22.175 7.36711 22.4 7.36711 22.675C7.36711 22.95 7.14211 23.175 6.86711 23.175H6.16711C5.89211 23.175 5.66711 22.95 5.66711 22.675C5.66711 22.4 5.89211 22.175 6.16711 22.175Z" fill="#447DFC"/>
<path d="M18.7529 19.99C19.8529 19.99 20.7529 19.095 20.7529 17.99V5C20.7529 3.895 19.8529 3 18.7529 3H11.2529C10.1479 3 9.25293 3.895 9.25293 5V17.99C9.25293 19.095 10.1479 19.99 11.2529 19.99H18.7529ZM15.5679 18.41H14.4329C14.1579 18.41 13.9329 18.19 13.9329 17.91C13.9329 17.635 14.1579 17.41 14.4329 17.41H15.5679C15.8479 17.41 16.0679 17.635 16.0679 17.91C16.0679 18.19 15.8479 18.41 15.5679 18.41ZM13.9129 4.58H16.0929C16.3679 4.58 16.5929 4.805 16.5929 5.08C16.5929 5.355 16.3679 5.58 16.0929 5.58H13.9129C13.6329 5.58 13.4129 5.355 13.4129 5.08C13.4129 4.805 13.6329 4.58 13.9129 4.58ZM10.2529 7.16H19.7529V15.83H10.2529V7.16Z" fill="#447DFC"/>
</svg>
