<svg width="30" height="30" viewBox="0 0 30 30" fill="none" xmlns="http://www.w3.org/2000/svg">
<g clip-path="url(#clip0_326_1187)">
<mask id="mask0_326_1187" style="mask-type:luminance" maskUnits="userSpaceOnUse" x="0" y="0" width="30" height="30">
<path d="M0.0283203 30V0.0187988H30.0002V30H0.0283203Z" fill="white"/>
</mask>
<g mask="url(#mask0_326_1187)">
<path fill-rule="evenodd" clip-rule="evenodd" d="M30 15C30 23.2842 23.2842 30 15 30C6.71578 30 0 23.2842 0 15C0 6.71578 6.71578 0 15 0C23.2842 0 30 6.71578 30 15Z" fill="#447DFC"/>
</g>
<path fill-rule="evenodd" clip-rule="evenodd" d="M15 26.25C9.30469 26.25 4.6875 21.6328 4.6875 15.9375C4.6875 10.2422 9.30469 5.625 15 5.625C20.6953 5.625 25.3125 10.2422 25.3125 15.9375C25.3125 21.6328 20.6953 26.25 15 26.25Z" fill="#447DFC"/>
<path fill-rule="evenodd" clip-rule="evenodd" d="M15 24.375C9.83063 24.375 5.625 20.1694 5.625 15C5.625 9.83063 9.83063 5.625 15 5.625C20.1694 5.625 24.375 9.83063 24.375 15C24.375 20.1694 20.1694 24.375 15 24.375Z" fill="#447DFC"/>
<path fill-rule="evenodd" clip-rule="evenodd" d="M15 4.6875C9.30469 4.6875 4.6875 9.30469 4.6875 15C4.6875 20.6953 9.30469 25.3125 15 25.3125C20.6953 25.3125 25.3125 20.6953 25.3125 15C25.3125 9.30469 20.6953 4.6875 15 4.6875ZM15 6.5625C19.6523 6.5625 23.4375 10.3477 23.4375 15C23.4375 19.6523 19.6523 23.4375 15 23.4375C10.3477 23.4375 6.5625 19.6523 6.5625 15C6.5625 10.3477 10.3477 6.5625 15 6.5625Z" fill="#FFFFFE"/>
<path fill-rule="evenodd" clip-rule="evenodd" d="M15 8.4375C11.3756 8.4375 8.4375 11.3756 8.4375 15C8.4375 18.6244 11.3756 21.5625 15 21.5625C18.6244 21.5625 21.5625 18.6244 21.5625 15C21.5625 11.3756 18.6244 8.4375 15 8.4375ZM15 10.3125C17.5847 10.3125 19.6875 12.4153 19.6875 15C19.6875 17.5847 17.5847 19.6875 15 19.6875C12.4153 19.6875 10.3125 17.5847 10.3125 15C10.3125 12.4153 12.4153 10.3125 15 10.3125Z" fill="#FFFFFE"/>
<path fill-rule="evenodd" clip-rule="evenodd" d="M17.3442 15.0001C17.3442 15.3079 17.2835 15.6127 17.1657 15.8971C17.0479 16.1815 16.8752 16.4398 16.6575 16.6575C16.4398 16.8751 16.1814 17.0477 15.897 17.1655C15.6126 17.2833 15.3078 17.3439 15 17.3439C14.6922 17.3438 14.3874 17.2832 14.103 17.1653C13.8186 17.0475 13.5603 16.8748 13.3426 16.6571C13.125 16.4395 12.9524 16.1811 12.8346 15.8967C12.7168 15.6123 12.6562 15.3075 12.6563 14.9996C12.6563 14.378 12.9033 13.7818 13.343 13.3423C13.7826 12.9027 14.3788 12.6558 15.0005 12.6559C15.6221 12.6559 16.2183 12.903 16.6578 13.3426C17.0974 13.7822 17.3443 14.3784 17.3442 15.0001Z" fill="#FFFFFE"/>
</g>
<defs>
<clipPath id="clip0_326_1187">
<rect width="30" height="30" fill="white"/>
</clipPath>
</defs>
</svg>
