<svg width="30" height="30" viewBox="0 0 30 30" fill="none" xmlns="http://www.w3.org/2000/svg">
<path d="M14.9983 1.87988C17.5977 1.87988 19.6852 3.97144 19.6852 6.57484C19.6873 7.19121 19.5676 7.80186 19.3328 8.37179C19.0981 8.94172 18.7531 9.45973 18.3175 9.89585C17.8819 10.332 17.3645 10.6777 16.7948 10.9132C16.2252 11.1486 15.6146 11.2692 14.9983 11.2678C14.3819 11.2692 13.7713 11.1486 13.2017 10.9132C12.6321 10.6777 12.1146 10.332 11.6791 9.89585C11.2435 9.45973 10.8984 8.94172 10.6637 8.37179C10.429 7.80186 10.3092 7.19121 10.3114 6.57484C10.3092 5.95847 10.429 5.34783 10.6637 4.77789C10.8984 4.20796 11.2435 3.68995 11.6791 3.25383C12.1146 2.81771 12.6321 2.47194 13.2017 2.23649C13.7713 2.00104 14.3819 1.87856 14.9983 1.87988ZM8.97367 16.8964H21.0229C22.9084 16.8964 24.3921 18.3721 24.3921 20.2277V28.1258H5.60645V20.2277C5.60645 18.3721 7.0881 16.8964 8.97367 16.8964Z" fill="#447DFC"/>
</svg>
